<?xml version="1.0" standalone="no"?>
<!DOCTYPE svg PUBLIC "-//W3C//DTD SVG 1.1//EN" "http://www.w3.org/Graphics/SVG/1.1/DTD/svg11.dtd" >
<svg xmlns="http://www.w3.org/2000/svg">
<metadata>Generated by IcoMoon</metadata>
<defs>
<font id="icomoon" horiz-adv-x="1024">
<font-face units-per-em="1024" ascent="960" descent="-64" />
<missing-glyph horiz-adv-x="1024" />
<glyph unicode="&#x20;" horiz-adv-x="512" d="" />
<glyph unicode="&#xe900;" glyph-name="instagram" horiz-adv-x="896" d="M448.2 678c-127.2 0-229.8-102.6-229.8-229.8s102.6-229.8 229.8-229.8 229.8 102.6 229.8 229.8-102.6 229.8-229.8 229.8zM448.2 298.8c-82.2 0-149.4 67-149.4 149.4s67 149.4 149.4 149.4 149.4-67 149.4-149.4-67.2-149.4-149.4-149.4zM741 687.4c0-29.8-24-53.6-53.6-53.6-29.8 0-53.6 24-53.6 53.6s24 53.6 53.6 53.6 53.6-24 53.6-53.6zM893.2 633c-3.4 71.8-19.8 135.4-72.4 187.8-52.4 52.4-116 68.8-187.8 72.4-74 4.2-295.8 4.2-369.8 0-71.6-3.4-135.2-19.8-187.8-72.2s-68.8-116-72.4-187.8c-4.2-74-4.2-295.8 0-369.8 3.4-71.8 19.8-135.4 72.4-187.8s116-68.8 187.8-72.4c74-4.2 295.8-4.2 369.8 0 71.8 3.4 135.4 19.8 187.8 72.4 52.4 52.4 68.8 116 72.4 187.8 4.2 74 4.2 295.6 0 369.6zM797.6 184c-15.6-39.2-45.8-69.4-85.2-85.2-59-23.4-199-18-264.2-18s-205.4-5.2-264.2 18c-39.2 15.6-69.4 45.8-85.2 85.2-23.4 59-18 199-18 264.2s-5.2 205.4 18 264.2c15.6 39.2 45.8 69.4 85.2 85.2 59 23.4 199 18 264.2 18s205.4 5.2 264.2-18c39.2-15.6 69.4-45.8 85.2-85.2 23.4-59 18-199 18-264.2s5.4-205.4-18-264.2z" />
<glyph unicode="&#xe901;" glyph-name="linkedin-in" horiz-adv-x="896" d="M200.56 64h-185.76v598.2h185.76zM107.58 743.8c-59.4 0-107.58 49.2-107.58 108.6 0 59.415 48.165 107.58 107.58 107.58s107.58-48.165 107.58-107.58v0c0-59.4-48.2-108.6-107.58-108.6zM895.8 64h-185.36v291.2c0 69.4-1.4 158.4-96.58 158.4-96.58 0-111.38-75.4-111.38-153.4v-296.2h-185.56v598.2h178.16v-81.6h2.6c24.8 47 85.38 96.6 175.76 96.6 188 0 222.56-123.8 222.56-284.6v-328.6z" />
<glyph unicode="&#xe902;" glyph-name="linkedin" horiz-adv-x="896" d="M832 896h-768.2c-35.2 0-63.8-29-63.8-64.6v-766.8c0-35.6 28.6-64.6 63.8-64.6h768.2c35.2 0 64 29 64 64.6v766.8c0 35.6-28.8 64.6-64 64.6zM270.8 128h-132.8v427.6h133v-427.6zM204.4 614c-42.6 0-77 34.6-77 77s34.4 77 77 77c42.4 0 77-34.6 77-77 0-42.6-34.4-77-77-77zM768.6 128h-132.8v208c0 49.6-1 113.4-69 113.4-69.2 0-79.8-54-79.8-109.8v-211.6h-132.8v427.6h127.4v-58.4h1.8c17.8 33.6 61.2 69 125.8 69 134.4 0 159.4-88.6 159.4-203.8v-234.4z" />
<glyph unicode="&#xe903;" glyph-name="align-center" horiz-adv-x="896" d="M656 880c26.6 0 48-21.5 48-48s-21.4-48-48-48h-416c-26.6 0-48 21.5-48 48s21.4 48 48 48h416zM848 624c26.6 0 48-21.4 48-48s-21.4-48-48-48h-800c-26.5 0-48 21.4-48 48s21.5 48 48 48h800zM192 320c0 26.6 21.4 48 48 48h416c26.6 0 48-21.4 48-48s-21.4-48-48-48h-416c-26.6 0-48 21.4-48 48zM848 112c26.6 0 48-21.4 48-48s-21.4-48-48-48h-800c-26.5 0-48 21.4-48 48s21.5 48 48 48h800z" />
<glyph unicode="&#xe904;" glyph-name="align-left" horiz-adv-x="896" d="M528 880c26.6 0 48-21.5 48-48s-21.4-48-48-48h-480c-26.5 0-48 21.5-48 48s21.5 48 48 48h480zM848 624c26.6 0 48-21.4 48-48s-21.4-48-48-48h-800c-26.5 0-48 21.4-48 48s21.5 48 48 48h800zM0 320c0 26.6 21.5 48 48 48h480c26.6 0 48-21.4 48-48s-21.4-48-48-48h-480c-26.5 0-48 21.4-48 48zM848 112c26.6 0 48-21.4 48-48s-21.4-48-48-48h-800c-26.5 0-48 21.4-48 48s21.5 48 48 48h800z" />
<glyph unicode="&#xe905;" glyph-name="align-right" horiz-adv-x="896" d="M848 880c26.6 0 48-21.5 48-48s-21.4-48-48-48h-480c-26.6 0-48 21.5-48 48s21.4 48 48 48h480zM848 624c26.6 0 48-21.4 48-48s-21.4-48-48-48h-800c-26.5 0-48 21.4-48 48s21.5 48 48 48h800zM848 272h-480c-26.6 0-48 21.4-48 48s21.4 48 48 48h480c26.6 0 48-21.4 48-48s-21.4-48-48-48zM848 112c26.6 0 48-21.4 48-48s-21.4-48-48-48h-800c-26.5 0-48 21.4-48 48s21.5 48 48 48h800z" />
<glyph unicode="&#xe906;" glyph-name="arrow-down-wide-short" horiz-adv-x="1152" d="M720 96h-96c-26.5 0-48-21.5-48-48s21.6-48 48-48h96c26.5 0 46.2 21.5 46.2 48s-19.8 48-46.2 48zM846.2 352h-222.2c-26.4 0-48-21.6-48-48s21.6-48 48-48h222.2c26.5 0 48 21.5 48 48s-19.8 48-48 48zM974.2 608h-350.2c-26.4 0-48-21.6-48-48s21.6-48 48-48h350.2c26.5 0 48 21.5 48 48s-19.8 48-48 48zM1102.2 864h-478.2c-26.4 0-48-21.5-48-48s21.6-48 48-48h478.2c26.5 0 48 21.5 48 48s-19.8 48-48 48zM412.8 289.8l-108.8-119.6v677.76c0 26.52-21.4 48.040-48 48.040s-48-21.52-48-48.040v-677.8l-108.74 117.9c-9.438 10.25-22.32 15.438-35.24 15.438-11.624 0-23.32-4.188-32.56-12.75-19.5-17.954-20.68-48.36-2.688-67.88l190.2-208.2c18.124-19.64 52.38-19.64 70.5 0l190.2 208.2c18 19.516 16.812 49.92-2.688 67.88-15.984 18.252-46.384 16.852-64.184-0.948z" />
<glyph unicode="&#xe907;" glyph-name="arrow-right-long" d="M670 143.8c-9.4 7.6-14 19.8-14 32.2s4.688 24.56 14.062 33.94l190.138 190.060h-812.2c-26.5 0-48 21.6-48 49.8 0 24.8 21.5 46.2 48 46.2h812.2l-190.060 190.060c-18.75 18.75-18.75 49.12 0 67.88s49.12 18.75 67.88 0l272-272c18.75-18.75 18.75-49.12 0-67.88l-272-272c-18.82-18.66-49.22-18.66-68.020 1.74z" />
<glyph unicode="&#xe908;" glyph-name="arrow-up-short-wide" horiz-adv-x="1152" d="M624 768.6h96c26.5 0 46.2 21.52 46.2 48.040s-21.5 48.040-46.2 48.040h-96c-26.5 0-48-21.52-48-48.040 0-26.54 21.6-48.040 48-48.040zM624 256.2h350.2c26.5 0 48 21.52 48 48.040s-21.5 48.040-48 48.040h-350.2c-26.5 0-48-21.52-48-48.040s21.6-48.040 48-48.040zM624 512.4h222.2c26.5 0 48 21.52 48 48.040s-21.5 48.040-48 48.040h-222.2c-26.5 0-48-21.52-48-48.040s21.6-48.040 48-48.040zM1102.2 97.8h-478.2c-26.5 0-48-21.52-48-48.040s21.6-49.76 48-49.76h478.2c26.5 0 48 21.52 48 48.040s-19.8 49.76-48 49.76zM291.2 881.26c-18.124 19.64-52.38 19.64-70.5 0l-191.94-208.060c-18-19.516-16.812-49.92 2.688-67.88 9.252-8.72 20.932-12.92 32.552-12.92 12.938 0 25.82 5.188 35.24 15.438l108.76 117.962v-677.8c0-26.4 21.6-48 48-48s48 21.6 48 49.8v676l108.74-117.9c17.86-19.5 48.26-20.9 67.86-2.7 19.4 18 20.6 48.4 2.6 68l-192 208.060z" />
<glyph unicode="&#xe909;" glyph-name="bold" horiz-adv-x="768" d="M607.6 476.6c4.168 3.676 8.82 6.614 12.77 10.606 45.44 45.82 70.060 106.62 69.44 171.18-1.21 130.994-109.010 237.614-240.010 237.614h-401.8c-26.5 0-48-21.5-48-48s21.5-48 48-48h48v-704h-48c-26.5 0-48-21.6-48-48s21.5-48 48-48h432c141.18 0 256 114.82 256 256 0 94.4-53.8 176.2-128.4 220.6zM449.8 800c78.62 0 143.18-64 144-142.62 0.375-38.68-14.438-75.12-41.68-102.68-27.12-27.5-63.52-42.7-102.32-42.7h-257.8v288h257.8zM480 96h-288v320h288c88.26 0 160-71.76 160-160.020s-71.8-159.98-160-159.98z" />
<glyph unicode="&#xe90a;" glyph-name="bullseye" d="M384 448c0 70.6 57.4 128 128 128s128-57.4 128-128c0-70.6-57.4-128-128-128s-128 57.4-128 128zM512 416c17.6 0 32 14.4 32 32s-14.4 32-32 32c-17.6 0-32-14.4-32-32s14.4-32 32-32zM192 448c0 176.8 143.2 320 320 320s320-143.2 320-320c0-176.8-143.2-320-320-320s-320 143.2-320 320zM512 224c123.8 0 224 100.2 224 224s-100.2 224-224 224c-123.8 0-224-100.2-224-224s100.2-224 224-224zM1024 448c0-282.8-229.2-512-512-512s-512 229.2-512 512c0 282.8 229.2 512 512 512s512-229.2 512-512zM512 864c-229.8 0-416-186.2-416-416s186.2-416 416-416c229.8 0 416 186.2 416 416s-186.2 416-416 416z" />
<glyph unicode="&#xe90b;" glyph-name="chart-simple" horiz-adv-x="896" d="M480 896c53 0 96-42.98 96-96v-704c0-53-43-96-96-96h-64c-53 0-96 43-96 96v704c0 53.020 43 96 96 96h64zM480 800h-64v-704h64v704zM160 512c53 0 96-43 96-96v-320c0-53-43-96-96-96h-64c-53.020 0-96 43-96 96v320c0 53 42.98 96 96 96h64zM160 416h-64v-320h64v320zM640 672c0 53 43 96 96 96h64c53 0 96-43 96-96v-576c0-53-43-96-96-96h-64c-53 0-96 43-96 96v576zM736 96h64v576h-64v-576z" />
<glyph unicode="&#xe90c;" glyph-name="check" horiz-adv-x="896" d="M880.2 754c20.4-18.8 20.4-49.2 0-66.2l-528-528c-17-20.4-47.4-20.4-66.2 0l-271.942 272c-18.744 17-18.744 47.4 0 66.2 18.742 18.6 49.142 18.6 67.882 0l238.060-238.2 494 494.2c18.8 18.68 49.2 18.68 66.2 0v0z" />
<glyph unicode="&#xe90d;" glyph-name="chevron-left" horiz-adv-x="640" d="M413.4 30.8l-366.2 382.2c-10.76 12.8-15.2 24.8-15.2 35s4.438 23.94 13.376 33.18l366.2 382.2c18.304 19.188 48.68 19.812 67.8 1.437 19.25-18.25 19.876-48.74 1.437-67.82l-334.333-348.997 336-350.8c18.438-19 17.812-49.56-1.437-67.82-19.043-18.38-49.443-17.78-67.643 1.42z" />
<glyph unicode="&#xe90e;" glyph-name="chevron-right" horiz-adv-x="640" d="M226.6 865.18l366.2-382.2c8.938-9.25 13.376-21.24 13.376-33.18s-4.438-23.94-13.376-33.18l-366.2-382.2c-18.304-19.188-48.68-19.812-67.8-1.437-19.25 18.25-19.876 48.76-1.437 67.82l336 350.8-335.943 347.197c-18.438 19-17.812 49.56 1.437 67.82 19.123 18.38 49.543 17.74 67.743-1.44z" />
<glyph unicode="&#xe90f;" glyph-name="circle-nodes" d="M746.6 237.6c50.8-26.8 85.4-80.2 85.4-141.6 0-88.4-71.6-160-160-160s-161.8 71.6-161.8 160c0 23 6.6 44.8 15.2 64.4l-282.2 247c-24.2-14.8-52.7-23.4-83.2-23.4-88.36 0-160 71.6-160 160s71.64 160 160 160c48.2 0 94.6-22.8 123.8-58.8l356.6 142.68c-0.2 4-0.4 8.040-0.4 12.12 0 88.36 71.6 160 160 160s160-71.64 160-160c0-81.6-61.2-149-141.8-158.8l-71.6-403.6zM800 864c-35.4 0-64-28.66-64-64s28.6-64 64-64c35.4 0 64 28.66 64 64s-28.6 64-64 64zM319.6 556.2c0.2-4-1.4-6.4-1.4-12.2 0-23-3-44.8-11.6-64.4l282.2-247c18.8 11.6 40.2 19.4 63.2 22.2l73.4 403.6c-19 10-35.8 23.8-49.2 40.4l-356.6-142.6zM672 160c-35.4 0-64-28.6-64-64s28.6-64 64-64c35.4 0 64 28.6 64 64s-28.6 64-64 64zM158.2 480c37.14 0 64 28.6 64 64s-26.86 64-64 64c-33.54 0-64-28.6-64-64s30.46-64 64-64z" />
<glyph unicode="&#xe910;" glyph-name="circle-plus" d="M464 272v128h-128c-26.6 0-48 21.4-48 48s21.4 48 48 48h128v128c0 26.6 21.4 48 48 48s48-21.4 48-48v-128h128c26.6 0 48-21.4 48-48s-21.4-48-48-48h-128v-128c0-26.6-21.4-48-48-48s-48 21.4-48 48zM1024 448c0-282.8-229.2-512-512-512s-512 229.2-512 512c0 282.8 229.2 512 512 512s512-229.2 512-512zM512 864c-229.8 0-416-186.2-416-416s186.2-416 416-416c229.8 0 416 186.2 416 416s-186.2 416-416 416z" />
<glyph unicode="&#xe911;" glyph-name="circle-question" d="M512 960c-282.8 0-512-229.2-512-512s229.2-512 512-512 512 229.2 512 512-229.2 512-512 512zM512 32c-229.4 0-416 186.62-416 416s186.6 416 416 416 416-186.62 416-416-186.6-416-416-416zM512 288c-36 0-64-28-64-64s26.2-64 64-64c34.2 0 64 28 64 64s-29.8 64-64 64zM578.2 704h-102.2c-78 0-140-62-140-140 0-26 22-48 48-48s48 22 48 48c0 24 18.2 44 42.2 44h102.2c25.8 0 47.6-20 47.6-44 0-16-8-28.2-22-36.2l-114-69.8c-16-10-24-26-24-42v-32c0-26 22-48 48-48s48 22 48 48v4l90.2 56c42 26 68 72 68 120 1.8 78-60.2 140-140 140z" />
<glyph unicode="&#xe912;" glyph-name="clock-three" d="M464 720c0 26.6 21.4 48 48 48s48-21.4 48-48v-224h160c26.6 0 48-21.4 48-48s-21.4-48-48-48h-208c-26.6 0-48 21.4-48 48v272zM512 960c282.8 0 512-229.2 512-512s-229.2-512-512-512c-282.8 0-512 229.2-512 512s229.2 512 512 512zM96 448c0-229.8 186.2-416 416-416s416 186.2 416 416c0 229.8-186.2 416-416 416s-416-186.2-416-416z" />
<glyph unicode="&#xe913;" glyph-name="code" horiz-adv-x="1280" d="M829.8 897.78l-288-927.98c-9.6-25.4-34.8-39.4-60-31.6-25.4 9.6-39.6 34.8-31.6 60l288 928.020c7.8 25.328 34.8 39.484 60 31.626 25.4-7.858 39.6-34.746 31.6-60.066v0zM1008.8 723l256-240c9.8-9 15.2-21.8 15.2-33.2 0-15-5.4-26-15.2-36.8l-256-240c-19.4-18.2-49.6-17.2-67.8 2.2s-17.2 49.6 2.2 67.8l218.6 206.8-218.6 203.2c-19.4 18.2-20.4 48.4-2.2 67.8s48.4 20.4 67.8 2.2v0zM336.8 653l-218.62-203.2 218.62-206.8c19.4-18.2 20.4-48.4 2.2-67.8s-48.4-20.4-67.8-2.2l-256.030 240c-9.678 10.8-15.17 21.8-15.17 36.8 0 11.4 5.492 24.2 15.17 33.2l256.030 240c19.4 18.2 49.6 17.2 67.8-2.2s17.2-49.6-2.2-67.8v0z" />
<glyph unicode="&#xe914;" glyph-name="copy" d="M1005.2 818.74l-122.5 122.5c-11.9 12.018-28.3 18.76-45.3 18.76h-327.2c-70.7 0-128-57.32-128-128l0.039-512c1.761-70.8 59.161-128 129.761-128h384c70.4 0 128 57.6 128 128v453.5c0 16.96-6.8 33.24-18.8 45.24zM928 320c0-17.672-14.328-32-32-32h-385.8c-17.676 0-32 14.328-32 32v511.74c0 17.672 14.328 32 32 32h256l1.8-95.74c0-35.34 28.66-64 64-64h94.2v-384zM544 64c0-17.672-14.328-32-32-32h-385.8c-17.676 0-32 14.328-32 32l1.76 511.8c0 17.672 14.328 32 32 32h192.040v96.2h-192.020c-70.7 0-128-57.3-128-128l0.020-512c0.004-70.6 57.32-128 128-128h384c70.4 0 128 57.6 128 128v64h-94.2l-1.8-64z" />
<glyph unicode="&#xe915;" glyph-name="credit-card" horiz-adv-x="1152" d="M336 288c26.6 0 48-21.4 48-48s-21.4-48-48-48h-96c-26.6 0-48 21.4-48 48s21.4 48 48 48h96zM720 288c26.6 0 48-21.4 48-48s-21.4-48-48-48h-224c-26.6 0-48 21.4-48 48s21.4 48 48 48h224zM1024 896c70.6 0 128-57.3 128-128v-640c0-70.6-57.4-128-128-128h-896c-70.7 0-128 57.4-128 128v640c0 70.7 57.3 128 128 128h896zM1024 800h-896c-17.68 0-32-14.32-32-32v-64h960v64c0 17.68-14.4 32-32 32zM1056 512h-960v-384c0-17.6 14.32-32 32-32h896c17.6 0 32 14.4 32 32v384z" />
<glyph unicode="&#xe916;" glyph-name="download" d="M896 352h-107l-96-96h203c17.644 0 32-14.356 32-32v-160c0-17.644-14.356-32-32-32h-768c-17.644 0-32 14.356-32 32v160c0 17.6 14.36 32 32 32h203l-96 96h-107c-70.7 0-128-57.3-128-128v-160c0-70.7 57.3-128 128-128h768c70.7 0 128 57.3 128 128v160c0 70.6-57.4 128-128 128zM864 144c0 26.52-21.5 48-48 48s-48-21.4-48-48c0-26.5 21.5-48 48-48s48 21.4 48 48zM478 223.8c9.4-11.2 21.6-15.8 34-15.8s24.56 4.688 33.94 14.062l272 272c18.75 18.75 18.75 49.12 0 67.88s-49.12 18.75-67.88 0l-190.060-190.142v540.2c0 26.5-21.4 48-48 48s-48-21.5-48-48v-540.2l-191.8 190.2c-18.75 18.75-49.12 18.75-67.88 0s-18.75-49.12 0-67.88l273.68-270.32z" />
<glyph unicode="&#xe917;" glyph-name="envelope-open" d="M987.2 634c-49.76 39.24-91 70.74-328.6 243.2-33.2 24.38-99.2 82.8-145.8 82.8h-1.6c-46.6 0-112.6-58.42-146-82.76-237.44-172.44-278.7-204.040-328.44-243.24-23.26-18-36.76-46-36.76-75.6v-494.4c0-70.6 57.3-128 128-128h768c70.7 0 128 57.34 128 128.020v494.38c0 29.6-13.4 57.6-36.8 75.6zM928 64c0-17.644-14.356-32-32-32h-768c-17.644 0-32 14.356-32 32v342.6l272.2-226.8c40.4-33.4 91.4-51.8 143.8-51.8s103.5 18.422 143.94 52.020l272.060 226.58v-342.6zM928 531.6l-333.6-276.2c-46.38-38.56-118.68-38.54-164.94-0.031l-333.46 276.231 0.211 26.96c46.48 36.66 84.5 65.94 325.8 241.2 6.164 4.508 13.348 10.054 21.26 16.188 15.529 12.072 50.129 38.872 68.729 46.812 18.624-7.946 53.24-34.74 68.82-46.82 7.918-6.132 15.106-11.68 21.52-16.372 240.86-174.968 279.060-204.368 325.66-241.168v-26.8z" />
<glyph unicode="&#xe918;" glyph-name="envelope" d="M128 736c-17.6 0-32-14.4-32-32v-44.2l345-283.2c41.4-34 100.8-34 142.2 0l344.8 283.2v44.2c0 17.6-14.4 32-32 32h-768zM96 535.6v-343.6c0-17.6 14.4-32 32-32h768c17.6 0 32 14.4 32 32v343.6l-284-233.2c-76.8-63-187.4-63-264 0l-284 233.2zM0 704c0 70.6 57.4 128 128 128h768c70.6 0 128-57.4 128-128v-512c0-70.6-57.4-128-128-128h-768c-70.6 0-128 57.4-128 128v512z" />
<glyph unicode="&#xe919;" glyph-name="eye" horiz-adv-x="1152" d="M320 448c0 141.4 114.6 256 256 256s256-114.6 256-256c0-141.4-114.6-256-256-256s-256 114.6-256 256zM576 288c88.4 0 160 71.6 160 160s-71.6 160-160 160c-1.4 0-2.6 0-5.8 0 4.4-10.2 5.8-21 5.8-32 0-70.6-57.4-128-128-128-11 0-21.8 1.4-32 5.8 0-3.2 0-4.4 0-4 0-90.2 71.6-161.8 160-161.8v0zM190.84 734.8c94.16 87.52 223.56 161.2 385.16 161.2s291-73.68 385.2-161.2c93.6-86.8 156.2-189 185.8-262.2 6.6-15.8 6.6-33.4 0-49.2-29.6-71.4-92.2-173.6-185.8-262.2-94.2-87.6-223.6-161.2-385.2-161.2s-291 73.6-385.16 161.2c-93.6 88.6-156.16 190.8-185.918 262.2-6.563 15.8-6.563 33.4 0 49.2 29.758 73.2 92.318 175.4 185.918 262.2v0zM576 800c-130.4 0-237.6-59.2-319.8-135.4-77-71.6-130.16-154.8-157.32-216.6 27.16-60 80.32-145 157.32-216.6 82.2-76.2 189.4-135.4 319.8-135.4s237.6 59.2 319.8 135.4c77 71.6 128.4 156.6 157.4 216.6-29 61.8-80.4 145-157.4 216.6-82.2 76.2-189.4 135.4-319.8 135.4v0z" />
<glyph unicode="&#xe91a;" glyph-name="file-certificate" d="M494.8 283.4c15 15 20.74 37 15.25 57.5-10.75 41.24-11 35.5 0 76.76 5.496 20.76-0.25 42.76-15.25 57.76-29.8 30.38-28.6 25.38-37.8 66.58-5.2 20.4-22.8 36.4-41.2 42-40.8 11.2-35.8 8.2-65.6 38.4-14.6 15-38 21-56.4 15.6-40.74-11-34.98-11-75.48 0-20.3 5.4-41.8-0.6-56.54-15.6-30-30.2-25-27.2-65.5-38.4-20.24-5.6-35.82-21.6-41.32-42-10.75-41.5-8-36.24-37.74-66.5-14.75-15-20.66-37-15.164-57.76 10.75-41.24 10.75-35.5 0-76.76-5.5-20.5 0.414-42.5 15.164-57.5 29.74-30.24 27-25.24 37.74-66.5 5.5-20.76 21.080-36.76 41.34-42.24 28.74-7.75 23-6 31.74-10v-228.74l127.98 64 127.98-64v228.8c8.5 4 2.998 2.25 31.74 10 19.996 5.5 34.2 21.5 41.24 42.24 9.22 41.36 8.020 36.16 37.82 66.36zM256 256c-70.74 0-127.98 57.24-127.98 128s57.26 128 127.98 128 127.98-57.24 127.98-128-57.18-128-127.98-128zM986.6 773.24l-149.26 149.28c-24.14 23.996-56.74 37.48-90.54 37.48h-364.6c-70.7 0-128-57.3-128-128l0.021-137.88c0 0 44.040 21.4 96 1.508l1.779 136.112c0 17.672 14.328 32 32 32h320v-159.74c0-35.34 28.66-64 64-64h158.2v-576c0-17.672-14.328-32-32-32h-446.2l-1.8-96h448c70.4 0 128 57.6 128 128v618.8c1.8 33.8-11.6 66.4-35.6 90.44z" />
<glyph unicode="&#xe91b;" glyph-name="file-export" horiz-adv-x="1152" d="M1136.2 354l-160 160c-18.75 18.75-49.12 18.75-67.88 0s-18.75-49.12 0-67.88l79.88-78.12h-556.2c-26.4 0-48-21.6-48-48s21.5-48 48-48h556.2l-78.060-78.060c-9.54-9.34-14.14-21.54-14.14-33.94s4.688-24.56 14.062-33.94c18.75-18.75 49.12-18.75 67.88 0l160 160c18.658 18.74 18.658 49.14-1.742 67.94zM720 192c-26.5 0-48-21.48-48-48v-80c0-17.672-14.328-32-32-32h-511.96c-17.672 0-32 14.328-32 32l-0.040 767.74c0 17.672 14.328 32 32 32h320v-159.74c0-35.34 28.66-64 64-64h158.2v-144c0-26.5 21.48-48 46.2-48s51.6 21.4 51.6 48v186.8c0 33.96-13.484 66.52-37.5 90.52l-149.26 149.28c-24.040 23.916-56.64 37.4-90.44 37.4h-364.6c-68.9 0-126.204-57.32-126.2-128l0.013-768c0.004-70.68 57.3-128 128-128h511.987c70.4 0 128 57.6 128 128v80c0 26.6-21.4 48-48 48z" />
<glyph unicode="&#xe91c;" glyph-name="file-pdf" horiz-adv-x="768" d="M640 32c17.6 0 32 14.4 32 32v64h96v-64c0-70.6-57.4-128-128-128h-512c-70.7 0-128 57.4-128 128v64h96v-64c0-17.6 14.32-32 32-32h512zM512 640c-35.4 0-64 28.6-64 64v160h-320c-17.68 0-32-14.32-32-32v-256h-96v256c0 70.7 57.3 128 128 128h331c34 0 66.4-13.486 90.4-37.5l181.2-181.1c24-24 37.4-56.4 37.4-90.4v-75h-96v64h-160zM176 512c61.8 0 112-50.2 112-112s-50.2-112-112-112h-16v-64c0-17.6-14.32-32-32-32s-32 14.4-32 32v256c0 17.6 14.32 32 32 32h48zM224 400c0 26.6-21.4 48-48 48h-16v-96h16c26.6 0 48 21.4 48 48zM320 480c0 17.6 14.4 32 32 32h48c53 0 96-43 96-96v-128c0-53-43-96-96-96h-48c-17.6 0-32 14.4-32 32v256zM384 256h16c17.6 0 32 14.4 32 32v128c0 17.6-14.4 32-32 32h-16v-192zM672 512c17.6 0 32-14.4 32-32s-14.4-32-32-32h-64v-64h64c17.6 0 32-14.4 32-32s-14.4-32-32-32h-64v-96c0-17.6-14.4-32-32-32s-32 14.4-32 32v256c0 17.6 14.4 32 32 32h96z" />
<glyph unicode="&#xe91d;" glyph-name="file" horiz-adv-x="768" d="M0 832c0 70.7 57.3 128 128 128h331c34 0 66.4-13.486 90.4-37.5l181.2-181.1c24-24 37.4-56.4 37.4-90.4v-587c0-70.6-57.4-128-128-128h-512c-70.7 0-128 57.4-128 128v768zM672 64v576h-160c-35.4 0-64 28.6-64 64v160h-320c-17.68 0-32-14.32-32-32v-768c0-17.6 14.32-32 32-32h512c17.6 0 32 14.4 32 32z" />
<glyph unicode="&#xe91e;" glyph-name="files" horiz-adv-x="896" d="M858.6 773.24l-149.26 149.28c-24.14 23.996-56.74 37.48-90.54 37.48h-298.8c-70.6 0-128-57.3-128-128l0.020-576c0-70.68 57.3-128 128-128h448c70.38 0 127.98 57.6 127.98 128v426.8c0 33.8-13.4 66.4-37.4 90.44zM800 256c0-17.672-14.328-32-32-32h-448c-17.676 0-32 14.328-32 32v575.74c0 17.672 14.328 32 32 32h256v-159.74c0-35.34 28.66-64 64-64h159.98v-384zM656-64h-416c-132.34 0-240 107.6-240 240v544c0 26.4 21.5 48 48 48s48-21.6 48-48v-544c0-79.4 64.6-144 144-144h416c26.5 0 48-21.5 48-48s-21.4-48-48-48z" />
<glyph unicode="&#xe91f;" glyph-name="gear" d="M320 448c0 107.8 84.2 192 192 192 106 0 192-84.2 192-192 0-106-86-192-192-192-107.8 0-192 86-192 192zM512 544c-53 0-96-43-96-96s43-96 96-96c53 0 96 43 96 96s-43 96-96 96zM586.2 959.999c44.4 0 83-30.379 93.4-73.479l15.6-64.94c17-8.3 33.2-17.72 48.6-28.14l64.2 18.9c42.6 12.54 88.2-5.68 110.4-44.080l74.2-128.46c22-38.4 15-87-17-117.6l-48.6-44.4c0.6-11 1-20.4 1-29.8s-0.4-18.8-1-28l48.6-46.2c32-30.6 39-79.2 17-117.6l-74.2-128.4c-22.2-38.4-67.8-56.6-110.4-44.2l-64.2 19c-15.4-10.4-31.6-19.8-48.6-28.2l-15.6-65c-10.4-43-49-73.4-93.4-73.4h-148.4c-44.4 0-83 30.4-93.4 73.4l-15.6 65c-17 8.4-33.2 17.8-48.6 28.2l-66-19c-40.74-12.4-86.32 5.8-108.5 44.2l-74.2 128.4c-22.18 38.4-15.164 87 16.96 117.6l48.48 46.2c-0.62 9.2-0.94 18.6-0.94 29.8 0 7.6 0.32 17 0.94 28l-48.48 44.4c-32.126 30.6-39.14 79.2-16.96 117.6l74.2 128.46c22.18 38.4 67.76 56.62 108.5 44.080l66-18.9c15.4 10.42 31.6 19.84 48.6 28.14l15.6 64.94c10.4 43.12 49 73.48 93.4 73.48l148.4-0.001zM411 752.8l-22.4-9.4c-25.4-10.6-49-24.4-70.4-40.8l-19.4-14.8-109.96 32.4-74.22-128.4 83-79-3.060-24c-1.68-13.4-2.56-27-2.56-40.8s0.88-27.4 2.56-40.8l3.060-24-82.98-79 74.2-128.4 109.96 32.4 19.4-14.8c21.4-16.4 45-30.2 70.4-40.8l22.4-9.4 26.8-111.2h148.4l26.8 111.2 22.4 9.4c25.4 10.6 49 24.4 70.4 40.8l19.4 14.8 110-32.4 74.2 128.4-83 79 3 24c1.8 13.4 2.6 27 2.6 40.8s-0.8 27.4-2.6 40.8l-3 24 83 79-74.2 128.4-110-32.4-19.4 14.8c-21.4 16.4-45 30.2-70.4 40.8l-22.4 9.4-26.8 111.2h-148.4l-26.8-111.2z" />
<glyph unicode="&#xe920;" glyph-name="grid-2" horiz-adv-x="896" d="M0 800c0 53.020 42.98 96 96 96h192c53 0 96-42.98 96-96v-192c0-53-43-96-96-96h-192c-53.020 0-96 43-96 96v192zM96 608h192v192h-192v-192zM0 288c0 53 42.98 96 96 96h192c53 0 96-43 96-96v-192c0-53-43-96-96-96h-192c-53.020 0-96 43-96 96v192zM96 96h192v192h-192v-192zM800 896c53 0 96-42.98 96-96v-192c0-53-43-96-96-96h-192c-53 0-96 43-96 96v192c0 53.020 43 96 96 96h192zM800 800h-192v-192h192v192zM512 288c0 53 43 96 96 96h192c53 0 96-43 96-96v-192c0-53-43-96-96-96h-192c-53 0-96 43-96 96v192zM608 96h192v192h-192v-192z" />
<glyph unicode="&#xe921;" glyph-name="infinity" horiz-adv-x="1280" d="M968.8 768c-154.8 0-270.4-136.2-328.8-225-58.4 88.8-174 225-328.8 225-171.7 0-311.2-143.6-311.2-320s139.5-320 311.2-320c155 0 270.4 136.2 328.8 225 58.4-88.8 174-225 328.8-225 171.8 0 311.2 143.6 311.2 320s-139.4 320-311.2 320zM311.2 224c-118.7 0-215.2 100.4-215.2 224s96.5 224 215.2 224c135.5 0 241-164.5 274.2-224-33.4-59.6-138.6-224-274.2-224zM968.8 224c-135.5 0-241 164.5-274.2 224 33.4 59.6 138.6 224 274.2 224 118.8 0 215.2-100.4 215.2-224s-96.4-224-215.2-224z" />
<glyph unicode="&#xe922;" glyph-name="italic" horiz-adv-x="768" d="M768 848c0-26.5-21.5-48-48-48h-135.96l-293.8-704h173.76c26.5 0 48-21.5 48-48s-21.4-48-48-48h-416c-26.5 0-48 21.4-48 48s21.5 48 48 48h141.2l293.8 704h-179c-26.4 0-48 21.5-48 48s21.6 48 48 48h416c26.6 0 48-21.5 48-48z" />
<glyph unicode="&#xe923;" glyph-name="layer-group" d="M462.4 949.816c15.6 6.72 32.6 10.184 49.6 10.184s32.2-3.464 49.6-10.184l418.6-179.396c26.6-11.42 43.8-37.42 43.8-66.42s-17.2-55-43.8-66.4l-418.6-179.4c-17.4-6.8-32.6-10.2-49.6-10.2s-34 3.4-49.6 10.2l-418.6 179.4c-26.572 11.4-43.8 37.4-43.8 66.4s17.228 55 43.8 66.42l418.6 179.396zM512 864c-5.8 0-9.8-0.82-11.8-2.42l-367.68-157.58 367.68-157.6c2-1.6 6-2.4 11.8-2.4 4 0 8 0.8 11.8 2.4l367.6 157.6-367.6 157.58c-3.8 1.6-7.8 2.42-11.8 2.42v0zM500.2 290.4c2-1.6 6-2.4 11.8-2.4 4 0 8 0.8 11.8 2.4l380.2 163c-9.2 13.8-11 32.2-3 48 12 23.8 40.8 33.4 64.4 21.6l18.2-9.2c24.8-12.4 40.4-37.6 40.4-65.2 0-29.4-17.4-55.8-44.2-67.2l-418.2-179.2c-17.4-6.8-32.6-10.2-49.6-10.2s-34 3.4-49.6 10.2l-416.78 178.6c-27.678 11.8-45.619 39-45.619 69.2 0 24.2 11.737 47 31.519 61.2l20.58 14.8c21.58 15.4 51.56 10.4 66.96-11.2 13.24-18.6 11.42-43.4-4.86-59.8l386-164.6zM119.060 258.8c13.24-18.6 11.42-43.4-4.86-59.8l386-164.6c2-1.6 6-2.4 11.8-2.4 4 0 8 0.8 11.8 2.4l380.2 163c-9.2 13.8-11 32.2-3 48 12 23.8 40.8 33.4 64.4 21.6l18.2-9.2c24.8-12.4 40.4-37.6 40.4-65.2 0-29.4-17.4-55.8-44.2-67.2l-418.2-179.2c-17.4-6.8-32.6-10.2-49.6-10.2s-34 3.4-49.6 10.2l-416.78 178.6c-27.678 11.8-45.618 39-45.618 69.2 0 24.2 11.738 47 31.518 61.2l20.58 14.8c21.58 15.4 51.56 10.4 66.96-11.2v0z" />
<glyph unicode="&#xe924;" glyph-name="life-ring" d="M928.2 98c20.4-18.8 20.4-49.2 0-66.2-17-20.4-47.4-20.4-66.2 0l-23.4 21.8c-88.8-73.4-202.4-117.6-326.6-117.6s-237.8 44.2-326.52 117.6l-23.54-21.8c-18.74-20.4-49.14-20.4-67.88 0-18.74 17-18.74 47.4 0 66.2l23.54 23.4c-73.44 88.8-117.6 202.4-117.6 326.6s44.16 237.8 117.6 326.52l-23.54 23.54c-18.74 18.74-18.74 49.14 0 67.88s49.14 18.74 67.88 0l23.54-23.54c88.72 73.44 202.32 117.6 326.52 117.6s237.8-44.16 326.6-117.6l23.4 23.54c18.8 18.74 49.2 18.74 66.2 0 20.4-18.74 20.4-49.14 0-67.88l-21.8-23.54c73.4-88.72 117.6-202.32 117.6-326.52s-44.2-237.8-117.6-326.6l21.8-23.4zM609.6 282.6c-28.6-17-62-26.6-97.6-26.6s-69 9.6-97.6 26.6l-160.6-160.8c70.8-56.2 160.6-89.8 258.2-89.8s187.4 33.6 258.2 89.8l-160.6 160.8zM928 448c0 97.6-33.6 187.4-89.8 258.2l-160.8-160.6c17-28.6 26.6-62 26.6-97.6s-9.6-69-26.6-97.6l160.8-160.6c56.2 70.8 89.8 160.6 89.8 258.2v0zM512 864c-97.6 0-187.4-33.6-258.2-89.86l160.6-160.74c28.6 17 62 26.6 97.6 26.6s69-9.6 97.6-26.6l160.6 160.74c-70.8 56.26-160.6 89.86-258.2 89.86v0zM346.6 350.4c-17 28.6-26.6 62-26.6 97.6s9.6 69 26.6 97.6l-160.74 160.6c-56.26-70.8-89.86-160.6-89.86-258.2s33.6-187.4 89.86-258.2l160.74 160.6zM512 544c-53 0-96-43-96-96s43-96 96-96c53 0 96 43 96 96s-43 96-96 96z" />
<glyph unicode="&#xe925;" glyph-name="magnifying-glass" d="M1008.2 18l-268 268c58 71 90 160.4 90 258 0 229.8-186.26 416-416 416s-414.2-186.26-414.2-416 186.24-416 414.2-416c97.58 0 187.1 33.82 258 90.080l268-268c11.2-9.48 23.6-14.080 35.8-14.080s24.56 4.688 33.94 14.062c18.66 18.738 18.66 49.138-1.74 67.938zM96 544c0 176.44 143.56 320 320 320s320-143.56 320-320-143.56-320-320-320-320 143.6-320 320z" />
<glyph unicode="&#xe926;" glyph-name="objects-align-bottom" d="M48-64c-26.5 0-48 21.4-48 48s21.5 48 48 48h928c26.6 0 48-21.4 48-48s-21.4-48-48-48h-928zM224 192c-53.020 0-96 43-96 96v576c0 53.020 42.98 96 96 96h128c53 0 96-42.98 96-96v-576c0-53-43-96-96-96h-128zM352 864h-128v-576h128v576zM672 192c-53 0-96 43-96 96v320c0 53 43 96 96 96h128c53 0 96-43 96-96v-320c0-53-43-96-96-96h-128zM800 608h-128v-320h128v320z" />
<glyph unicode="&#xe927;" glyph-name="objects-align-center-horizontal" horiz-adv-x="896" d="M896 608c0-53-43-96-96-96h-304v-128h176c53 0 96-43 96-96v-128c0-53-43-96-96-96h-176v-80c0-26.6-21.4-48-48-48s-48 21.4-48 48v80h-176c-53.020 0-96 43-96 96v128c0 53 42.98 96 96 96h176v128h-304c-53.020 0-96 43-96 96v128c0 53.020 42.98 96 96 96h304v80c0 26.5 21.4 48 48 48s48-21.5 48-48v-80h304c53 0 96-42.98 96-96v-128zM800 608v128h-704v-128h704zM672 160v128h-448v-128h448z" />
<glyph unicode="&#xe928;" glyph-name="objects-align-center-vertical" d="M128 800c0 53.020 42.98 96 96 96h128c53 0 96-42.98 96-96v-304h128v176c0 53 43 96 96 96h128c53 0 96-43 96-96v-176h80c26.6 0 48-21.4 48-48s-21.4-48-48-48h-80v-176c0-53-43-96-96-96h-128c-53 0-96 43-96 96v176h-128v-304c0-53-43-96-96-96h-128c-53.020 0-96 43-96 96v304h-80c-26.5 0-48 21.4-48 48s21.5 48 48 48h80v304zM224 96h128v704h-128v-704zM672 224h128v448h-128v-448z" />
<glyph unicode="&#xe929;" glyph-name="objects-align-left" d="M0 912c0 26.5 21.5 48 48 48s48-21.5 48-48v-928c0-26.6-21.5-48-48-48s-48 21.4-48 48v928zM256 736c0 53.020 43 96 96 96h576c53 0 96-42.98 96-96v-128c0-53-43-96-96-96h-576c-53 0-96 43-96 96v128zM928 608v128h-576v-128h576zM256 288c0 53 43 96 96 96h320c53 0 96-43 96-96v-128c0-53-43-96-96-96h-320c-53 0-96 43-96 96v128zM672 160v128h-320v-128h320z" />
<glyph unicode="&#xe92a;" glyph-name="objects-align-right" d="M1024-16c0-26.6-21.4-48-48-48s-48 21.4-48 48v928c0 26.5 21.4 48 48 48s48-21.5 48-48v-928zM768 608c0-53-43-96-96-96h-576c-53.020 0-96 43-96 96v128c0 53.020 42.98 96 96 96h576c53 0 96-42.98 96-96v-128zM672 608v128h-576v-128h576zM768 160c0-53-43-96-96-96h-320c-53 0-96 43-96 96v128c0 53 43 96 96 96h320c53 0 96-43 96-96v-128zM672 160v128h-320v-128h320z" />
<glyph unicode="&#xe92b;" glyph-name="objects-align-top" d="M976 960c26.6 0 48-21.5 48-48s-21.4-48-48-48h-928c-26.5 0-48 21.5-48 48s21.5 48 48 48h928zM352 704c53 0 96-43 96-96v-576c0-53-43-96-96-96h-128c-53.020 0-96 43-96 96v576c0 53 42.98 96 96 96h128zM352 608h-128v-576h128v576zM800 704c53 0 96-43 96-96v-320c0-53-43-96-96-96h-128c-53 0-96 43-96 96v320c0 53 43 96 96 96h128zM800 608h-128v-320h128v320z" />
<glyph unicode="&#xe92c;" glyph-name="paintbrush-pencil" horiz-adv-x="1152" d="M362.6 921.36l216.8-216.96-67.8-67.8-65.6 67.2-125.8-125.8 67.2-65.6-16.4-16.4-4.8 1.8c-28.6 0-58-6-86-14l-177.58 177.6c-43.74 43.8-49.2 111.34-16.4 161.020 4.68 7.1 10.16 13.84 16.4 20.080l78.86 78.86c49.92 49.996 131.12 49.996 181.12 0v0zM828.4 319.8l67.8 67.8 74.6-74.6c20.8-20.8 36.2-46.6 44.4-74.8l70.8-240.6c5-17 0.4-35.2-13.8-45.8-10.6-14.2-28.8-18.8-45.8-13.8l-240.6 70.8c-24.8 9-47.6 19.8-66.8 36.8-2.8 4.2-5.4 5-8 7.6l-35.2 35c8 28 12.2 57.4 12.2 87.8l-1.8 3.4 18 16.2 74.6-74.6c9.6-9.4 21.2-16.4 34-20.2l156.4-46-46 156.4c-3.4 11.2-9 21.6-16.8 30.2-1 1.4-2.2 2.6-3.4 3.8l-74.6 74.6zM1104.2 913.94c55.8-54.080 55.8-141.78 0-194.14l-499.6-503.2c2.2-13.2 3.4-26.8 3.4-40.6 0-132.6-107.4-240-240-240h-304c-35.34 0-64 28.6-64 64s28.66 64 64 64h12.020c36.16 0 60.26 39.6 54.76 75.2-1.82 12-4.58 24.4-4.58 36.8 0 132.6 109.2 241.8 240 241.8 15.6 0 29.2-3 42.4-5.2l501.4 501.34c54.2 54.094 141.8 54.094 194.2 0v0zM1038 846.060c-16.6 16.6-43.4 16.6-61.8 0l-363.8-365.46 60.2-60.2 365.4 365.54c16.6 16.6 16.6 43.52 0 60.12v0zM224 176c0-7.6 0.6-15 1.6-22.2 6.6-42.8-4.2-86.2-27.44-120l-1.32-1.8h171.16c79.6 0 144 64.4 144 144 0 18.8-3.6 36.6-11.8 53l-79.2 81c-16.4 6.4-34.2 11.8-53 11.8-79.6 0-144-66.2-144-145.8v0z" />
<glyph unicode="&#xe92d;" glyph-name="pen" d="M117.14 313l608.26 608.36c50 49.996 131.2 49.996 181.2 0l78.8-78.86c6.2-6.24 11.6-12.98 16.4-20.080 32.8-49.68 27.4-117.22-16.4-161.020l-608.4-608.2c-2.6-2.6-5.2-3.4-8-7.6-19.2-17-42-27.8-66.8-36.8l-240.66-70.8c-16.84-5-35.060-0.4-47.48 13.8-12.42 10.6-17.064 28.8-12.108 45.8l70.788 240.6c8.32 28.2 23.58 54 44.4 74.8v0zM164.84 211.2l-45.96-156.4 156.32 46c11 3.8 24.4 10.8 34 20.2l456.8 457-125.8 125.8-455.18-458.6c-1.18-1.2-2.32-2.4-3.42-3.8-7.72-8.6-13.46-19-16.76-30.2v0z" />
<glyph unicode="&#xe92e;" glyph-name="arrow-up-right" horiz-adv-x="640" d="M640 720v-480c0-26.5-21.5-48-48-48s-48 21.5-48 48v364.2l-462-462c-9.44-9.6-21.72-14.2-34-14.2s-24.56 4.688-33.94 14.062c-18.75 18.75-18.75 49.12 0 67.88l462.14 462.058h-364.2c-26.5 0-48 21.4-48 48s21.5 48 48 48h480c26.6 0 48-21.6 48-48z" />
<glyph unicode="&#xe92f;" glyph-name="plus" horiz-adv-x="896" d="M864 448c0-26.6-21.4-48-48-48h-320v-320c0-26.5-21.5-48.020-48-48.020s-48 21.42-48 48.020v320h-320c-26.5 0-48 21.48-48 47.98 0 26.42 21.5 48.020 48 48.020h320v320c0 26.5 21.5 47.98 48 47.98s48-21.48 48-47.98v-320h320c26.6 0 48-21.6 48-48z" />
<glyph unicode="&#xe930;" glyph-name="qrcode" horiz-adv-x="896" d="M208 753.8c17.6 0 32-16.2 32-32v-32c0-19.4-14.4-32-32-32h-32c-17.68 0-32 12.6-32 32v32c0 15.8 14.32 32 32 32h32zM0 801.8c0 51.22 42.98 96 96 96h192c53 0 96-44.78 96-96v-192c0-54.8-43-96-96-96h-192c-53.020 0-96 41.2-96 96v192zM96 609.8h192v192h-192v-192zM144 209.8c0 15.8 14.32 32 32 32h32c17.6 0 32-16.2 32-32v-32c0-19.4-14.4-32-32-32h-32c-17.68 0-32 12.6-32 32v32zM0 289.8c0 51.2 42.98 96 96 96h192c53 0 96-44.8 96-96v-192c0-54.8-43-96-96-96h-192c-53.020 0-96 41.2-96 96v192zM96 97.8h192v192h-192v-192zM720 753.8c17.6 0 32-16.2 32-32v-32c0-19.4-14.4-32-32-32h-32c-17.6 0-32 12.6-32 32v32c0 15.8 14.4 32 32 32h32zM800 897.8c53 0 96-44.78 96-96v-192c0-54.8-43-96-96-96h-192c-53 0-96 41.2-96 96v192c0 51.22 43 96 96 96h192zM800 801.8h-192v-192h192v192zM768 1.8h-64v64h64v-64zM832 65.8h64v-64h-64v64zM896 129.8h-192v64h-64v-192h-128v384h192v-64h128v64h64v-256z" />
<glyph unicode="&#xe931;" glyph-name="share-all" horiz-adv-x="1152" d="M735 813.2c-19.2 18.2-20 48.6-1.8 67.8s48.6 20 67.8 1.8l283.4-269.2c39.8-37.8 39.8-101.4 0-139.2l-283.4-269.2c-19.2-18.2-49.6-17.4-67.8 1.8s-17.4 49.6 1.8 67.8l283.4 269.2-283.4 269.2zM448 480v0h48c26.6 0 48-21.4 48-48v-104.2l240.2 216.2-240.2 216.2v-104.2c0-26.6-21.4-48-48-48h-144c-141.4 0-256-114.6-256-256 0-30.6 3.8-58.2 10.4-83 33.6 121.6 145.2 211 277.6 211h64zM448 288v96h-64c-11 0-21.6-1-32-2.6-90.8-15.2-160-94.2-160-189.4 0-34.6 8.4-61 19-80.4 3.2-5.8 6.6-11 10-15.8 5.2-7 10.6-12.8 15.4-17.2 1-1 2-1.8 2.8-2.8 9.6-9.8 16.6-22.6 16.6-36.2 0-21.8-17.6-39.4-39.4-39.4-5.6 0-11.2 1.2-16.2 3.8-5.2 2.8-12.6 7-21.6 13-5.4 3.6-11.4 7.6-17.8 12.4-7.4 5.4-15.2 11.6-23.4 18.6-60.2 51.6-137.4 148-137.4 304 0 194.4 157.6 352 352 352h96v128c0 25.2 14.8 48.2 38 58.4s50 6 68.8-10.8l320-288c13.4-12.2 21.2-29.4 21.2-47.6s-7.6-35.4-21.2-47.6l-320-288c-18.8-17-45.8-21.2-68.8-10.8s-38 33.2-38 58.4v32z" />
<glyph unicode="&#xe932;" glyph-name="share-from-square" horiz-adv-x="1152" d="M800 449.2v94.8c0 17.6-14.4 32-32 32h-189c-101.8 0-187.8-67-216.6-159.2-6.6 18.8-10.4 39.6-10.4 63.2 0 123.8 100.2 224 224 224h192c17.6 0 32 14.4 32 32v94.8l212-190.8-212-190.8zM672 480h32v-96c0-35.4 28.6-64 64-64h7.4c15.8 0 31 5.8 42.8 16.4l278 250.2c15.2 13.6 23.8 33 23.8 53.4s-8.6 39.8-23.8 53.4l-276.4 248.8c-12.8 11.4-29.2 17.8-46.4 17.8-38.4 0-69.4-31-69.4-69.4v-90.6h-128c-176.8 0-320-143.2-320-320 0-120.8 69.2-198.2 127.8-241.8 11.8-8.8 23-16.2 33.4-22.4 8.8-5.4 17-9.8 23.8-13.2s12.4-6 16.4-7.8c4.4-2 9.2-2.8 14.2-2.8h5c19.6 0 35.6 16 35.6 35.6 0 15.6-10.6 29.4-23.2 39v0c-0.8 0.6-1.4 1-2.2 1.6-3.4 2.2-6.8 5-10 8.2-1.6 1.6-3.4 3.2-5 5.2s-3.2 3.8-4.8 5.8c-3.6 5-7 10.6-10 17-5.2 12-8.6 26.6-8.6 44.8 0 72.2 58.6 131 131 131h92.6zM144 896c-79.6 0-144-64.4-144-144v-672c0-79.6 64.4-144 144-144h672c79.6 0 144 64.4 144 144v128c0 26.6-21.4 48-48 48s-48-21.4-48-48v-128c0-26.6-21.4-48-48-48h-672c-26.6 0-48 21.4-48 48v672c0 26.6 21.4 48 48 48h128c26.6 0 48 21.4 48 48s-21.4 48-48 48h-128z" />
<glyph unicode="&#xe933;" glyph-name="share-nodes" horiz-adv-x="896" d="M896 704c0-106-86-192-192-192-57.8 0-109.6 25.6-144.8 66l-179.4-89.8c2.8-13 2.4-26.4 2.4-38.4 0-15.6 0.4-29-2.4-42l179.4-88c35.2 38.6 87 66 144.8 66 106 0 192-86 192-193.8 0-106-86-192-192-192-107.8 0-192 86-192 192 0 13.8 1.4 27.2 4.2 40.2l-179.4 89.8c-35.2-40.4-87-66-144.8-66-106.040 0-192 86-192 193.8 0 106 85.96 192 192 192 57.8 0 109.6-27.4 144.8-66l179.4 88c-2.8 13-4.2 26.4-4.2 40.2 0 106.040 84.2 192 192 192 106 0 192-85.96 192-192v0zM190.2 352c54.8 0 96 43 96 96s-41.2 96-96 96c-51.22 0-96-43-96-96s44.78-96 96-96zM704 800c-53 0-96-43-96-96s43-96 96-96c53 0 96 43 96 96s-43 96-96 96zM704 96c53 0 96 43 96 96s-43 96-96 96c-53 0-96-43-96-96s43-96 96-96z" />
<glyph unicode="&#xe934;" glyph-name="text-size" horiz-adv-x="1280" d="M640 464v-96c0-26.6 21.6-48 48-48s48 21.5 48 48v48h176v-320h-64c-26.5 0-48-21.5-48-48s21.6-48 48-48h224c26.5 0 48 21.5 48 48s-21.5 48-48 48h-64v320h176v-48c0-26.5 21.5-48 48-48s48 21.4 48 48v96c0 26.4-21.4 48-48 48h-544c-26.4 0-48-21.6-48-48zM0 848v-160c0-26.6 21.5-48 48-48s48 21.4 48 48v112h240v-704h-96c-26.4 0-48-21.6-48-48s21.6-48 48-48h288c26.6 0 48 21.4 48 48s-21.4 48-48 48h-96v704h240v-112c0-26.6 21.6-48 48-48s48 21.4 48 48v160c0 26.5-21.4 48-48 48h-672c-26.5 0-48-21.5-48-48z" />
<glyph unicode="&#xe935;" glyph-name="trash-can" horiz-adv-x="896" d="M320 160c0-17.6-14.4-32-32-32s-32 14.4-32 32v416c0 17.6 14.4 32 32 32s32-14.4 32-32v-416zM480 160c0-17.6-14.4-32-32-32s-32 14.4-32 32v416c0 17.6 14.4 32 32 32s32-14.4 32-32v-416zM640 160c0-17.6-14.4-32-32-32s-32 14.4-32 32v416c0 17.6 14.4 32 32 32s32-14.4 32-32v-416zM635 910.12l73.4-110.12h139.6c26.6 0 48-21.5 48-48 0-26.6-21.4-48-48-48h-16v-608c0-88.4-71.6-160-160-160h-448c-88.36 0-160 71.6-160 160v608h-16c-26.5 0-48 21.4-48 48 0 26.5 21.5 48 48 48h139.64l73.36 110.12c20.8 31.166 55.8 49.88 93.2 49.88h187.6c37.4 0 72.4-18.716 93.2-49.88v0zM303 800h290l-38 56.88c-3 4.44-8 7.12-13.2 7.12h-187.6c-5.2 0-12-2.68-13.2-7.12l-38-56.88zM160 96c0-35.4 28.66-64 64-64h448c35.4 0 64 28.6 64 64v608h-576v-608z" />
<glyph unicode="&#xe936;" glyph-name="triangle-exclamation" d="M1012.6 126l-426.6 728c-16.4 28-45.2 42-74 42s-57.6-14-75.8-42l-426.4-728c-30.98-55.8 9.902-126 75.68-126h853.2c65.52 0 106.52 70 73.92 126zM105.16 96l405.040 694.4 408.6-694.4h-813.64zM512 285.8c-34.72 0-62.88-28.16-62.88-62.88s28.22-62.88 62.96-62.88 62.8 28.16 62.8 62.88c-0.080 34.68-28.080 62.88-62.88 62.88zM464 592v-192c0-26.6 21.6-48 48-48s48 21.5 48 48v192c0 26.4-21.4 48-48 48s-48-21.6-48-48z" />
<glyph unicode="&#xe937;" glyph-name="underline" horiz-adv-x="896" d="M80 864h48v-384c0-176.44 143.56-320 320-320s320 143.56 320 320v384h48c26.5 0 48 21.5 48 48s-21.4 48-48 48h-192c-26.4 0-48-21.5-48-48s21.5-48 48-48h48v-384c0-123.5-100.5-224-224-224s-224 100.4-224 224v384h48c26.6 0 48 21.5 48 48s-21.4 48-48 48h-192c-26.5 0-48-21.5-48-48s21.5-48 48-48zM848 32h-800c-26.5 0-48-21.6-48-48s21.5-48 48-48h800c26.5 0 48 21.5 48 48s-21.4 48-48 48z" />
<glyph unicode="&#xe938;" glyph-name="upload" d="M896 352h-256v-96h256c17.644 0 32-14.356 32-32v-160c0-17.644-14.356-32-32-32h-768c-17.644 0-32 14.356-32 32v160c0 17.6 14.36 32 32 32h256v96h-256c-70.7 0-128-57.3-128-128v-160c0-70.7 57.3-128 128-128h768c70.7 0 128 57.3 128 128v160c0 70.6-57.4 128-128 128zM272.2 607.8l191.8 188.32v-540.12c0-26.5 21.5-48 48-48s48 21.5 48 48v540.12l190.060-190.060c9.34-9.46 21.54-14.060 33.94-14.060s24.56 4.688 33.94 14.062c18.75 18.75 18.75 49.12 0 67.88l-272 272c-18.75 18.75-49.12 18.75-67.88 0l-272-272c-18.75-18.75-18.75-49.12 0-67.88s49.14-18.662 66.14 1.738zM864 144c0 26.52-21.5 48-48 48s-48-21.4-48-48c0-26.5 21.5-48 48-48s48 21.4 48 48z" />
<glyph unicode="&#xe939;" glyph-name="user" horiz-adv-x="896" d="M544 352h-192c-194.4 0-352-157.6-352-352 0-35.34 28.66-64 64-64h768c35.34 0 64 28.66 64 64 0 194.4-157.6 352-352 352zM97.98 32c15.8 126.2 123.62 224 254.020 224h192c130.32 0 238.2-97.9 254-224h-700.020zM448 448c141.38 0 256 114.62 256 256s-114.62 256-256 256-256-114.62-256-256c0-141.4 114.6-256 256-256zM448 864c88.22 0 160-71.78 160-160s-71.78-160-160-160-160 71.8-160 160c0 88.22 71.8 160 160 160z" />
<glyph unicode="&#xe93a;" glyph-name="x" horiz-adv-x="768" d="M756.8 78.8c17.062-20.32 14.406-50.56-5.876-67.62-9.124-7.58-19.924-11.18-30.924-11.18-13.688 0-27.28 5.812-36.78 17.124l-299.22 356.276-299.2-356.2c-9.54-11.4-23.14-17.2-36.84-17.2-10.906 0-21.84 3.688-30.84 11.25-20.28 17.062-22.94 47.32-5.876 67.62l310.156 369.13-310.15 369.12c-17.062 20.32-14.406 50.56 5.876 67.62 20.254 17.1 50.554 14.48 67.634-5.86l299.24-356.28 299.2 356.2c17.094 20.34 47.34 22.94 67.62 5.876s22.94-47.32 5.876-67.62l-310.096-369.056 310.2-369.2z" />
<glyph unicode="&#xe93b;" glyph-name="grid-2-plus" d="M352 896c53 0 96-42.98 96-96v-192c0-53-43-96-96-96h-192c-53.020 0-96 43-96 96v192c0 53.020 42.98 96 96 96h192zM352 800h-192v-192h192v192zM352 384c53 0 96-43 96-96v-192c0-53-43-96-96-96h-192c-53.020 0-96 43-96 96v192c0 53 42.98 96 96 96h192zM352 288h-192v-192h192v192zM576 800c0 53.020 43 96 96 96h192c53 0 96-42.98 96-96v-192c0-53-43-96-96-96h-192c-53 0-96 43-96 96v192zM672 608h192v192h-192v-192zM768 416c26.6 0 48-21.4 48-48v-128h128c26.6 0 48-21.4 48-48s-21.4-48-48-48h-128v-128c0-26.6-21.4-48-48-48s-48 21.4-48 48v128h-128c-26.6 0-48 21.4-48 48s21.4 48 48 48h128v128c0 26.6 21.4 48 48 48z" />
<glyph unicode="&#xe93c;" glyph-name="share" d="M576 480h-192c-132.4 0-244-89.4-277.6-211-6.6 24.8-10.4 52.4-10.4 83 0 141.4 114.6 256 256 256h272c26.6 0 48 21.4 48 48v104.2l240.2-216.2-240.2-216.2v104.2c0 26.6-21.4 48-48 48h-48zM576 384v-128c0-25.2 14.8-48.2 38-58.4s50-6 68.8 10.8l320 288c13.4 12.2 21.2 29.4 21.2 47.6s-7.6 35.4-21.2 47.6l-320 288c-18.8 17-45.8 21.2-68.8 10.8s-38-33.2-38-58.4v-128h-224c-194.4 0-352-157.6-352-352 0-156 77.2-252.4 137.4-304.2 8.2-7 16.2-13.2 23.4-18.6 6.4-4.8 12.4-8.8 17.8-12.4 9-6 16.6-10.2 21.6-13s10.6-3.8 16.2-3.8c21.8 0 39.4 17.8 39.4 39.4 0 13.6-7.2 26.4-16.6 36.2-1 1-1.8 1.8-2.8 2.8-4.8 4.6-10.2 10.2-15.4 17.2-3.4 4.6-6.8 10-10 15.8-10.6 19.4-19 45.8-19 80.4 0 106 86 192 192 192h192z" />
<glyph unicode="&#xe93d;" glyph-name="xmark" horiz-adv-x="640" d="M624.2 210c18.738-18.738 18.738-49.14 0-67.88s-49.14-18.738-67.88 0l-236.32 238.080-238-238c-18.738-18.738-49.14-18.738-67.88 0s-18.738 49.14 0 67.88l238.080 237.92-238.146 239.8c-18.738 18.738-18.738 49.14 0 67.88s49.14 18.738 67.88 0l238.066-239.88 238 238c18.738 18.738 49.14 18.738 67.88 0s18.738-49.14 0-67.88l-238.080-237.92 236.4-238z" />
</font>
</defs>
</svg>
