<svg xmlns="http://www.w3.org/2000/svg" xmlns:xlink="http://www.w3.org/1999/xlink" width="1080" zoomAndPan="magnify" viewBox="0 0 810 809.999993" height="1080" preserveAspectRatio="xMidYMid meet" version="1.0"><g fill="#031a61" fill-opacity="1"><style>@media (prefers-color-scheme: light) { :root { filter: none; } }
@media (prefers-color-scheme: dark) { :root { filter: contrast(0.3846153846153846) brightness(4.5); } }
</style><g transform="translate(12.149466, 619.654366)"><g><path d="M 372.046875 0 L 318.3125 0 L 96.953125 -339.921875 L 94.75 -339.921875 C 97.695312 -300.023438 99.171875 -263.457031 99.171875 -230.21875 L 99.171875 0 L 55.6875 0 L 55.6875 -405.015625 L 108.875 -405.015625 L 329.671875 -66.484375 L 331.890625 -66.484375 C 331.515625 -71.472656 330.679688 -87.492188 329.390625 -114.546875 C 328.097656 -141.609375 327.632812 -160.957031 328 -172.59375 L 328 -405.015625 L 372.046875 -405.015625 Z M 372.046875 0 "/></g></g></g><g fill="#031a61" fill-opacity="1"><g transform="translate(439.879184, 619.654366)"><g><path d="M 229.109375 -368.734375 C 184.597656 -368.734375 149.457031 -353.910156 123.6875 -324.265625 C 97.925781 -294.617188 85.046875 -254.035156 85.046875 -202.515625 C 85.046875 -149.503906 97.460938 -108.546875 122.296875 -79.640625 C 147.140625 -50.742188 182.554688 -36.296875 228.546875 -36.296875 C 256.804688 -36.296875 289.035156 -41.375 325.234375 -51.53125 L 325.234375 -10.25 C 297.160156 0.28125 262.53125 5.546875 221.34375 5.546875 C 161.6875 5.546875 115.648438 -12.550781 83.234375 -48.75 C 50.828125 -84.957031 34.625 -136.394531 34.625 -203.0625 C 34.625 -244.800781 42.425781 -281.367188 58.03125 -312.765625 C 73.644531 -344.160156 96.175781 -368.351562 125.625 -385.34375 C 155.082031 -402.34375 189.757812 -410.84375 229.65625 -410.84375 C 272.132812 -410.84375 309.257812 -403.082031 341.03125 -387.5625 L 321.078125 -347.125 C 290.421875 -361.53125 259.765625 -368.734375 229.109375 -368.734375 Z M 229.109375 -368.734375 "/></g></g></g></svg>